<svg width="200" height="111" fill="none" xmlns="http://www.w3.org/2000/svg"><g clip-path="url(#clip0)"><path d="M9.895 88.671c0 2.31-1.909 3.754-4.955 3.754H2.642v2.854H0V84.917h4.94c3.046 0 4.955 1.436 4.955 3.754zm-2.675 0c0-1.135-.813-1.802-2.43-1.802H2.642v3.595H4.79c1.617 0 2.43-.666 2.43-1.793zm7.808-3.754h2.642v8.4h5.706v1.952h-8.348V84.917zm20.721 8.133h-5.322l-1.01 2.22h-2.703l5.124-10.353h2.608l5.1 10.352h-2.768l-1.03-2.22zm-.832-1.816l-1.81-3.966-1.81 3.966h3.62zM45.77 86.87h-3.652v-1.953h9.933v1.952h-3.653v8.4h-2.642l.015-8.4zm13.614-.029v2.736h5.279v1.92h-5.28v3.754h-2.632V84.917h8.622v1.924h-5.99z" fill="#2D2D2D"/><path d="M76.434 91.312a3.573 3.573 0 00-6.953-1.645 3.573 3.573 0 006.953 1.645z" fill="#5AA0CB"/><path d="M88.467 95.27l-2.2-2.882H83.84v2.881h-2.646V84.917h4.94c3.046 0 4.955 1.436 4.955 3.754a3.375 3.375 0 01-2.35 3.285l2.561 3.328-2.834-.015zm-2.477-8.4h-2.15v3.608h2.149c1.617 0 2.43-.68 2.43-1.807 0-1.126-.813-1.802-2.43-1.802zm20.833 8.4v-6.214l-3.361 5.12h-1.189l-3.357-4.984v6.077H96.44V84.917h2.186l4.268 6.434 4.207-6.434h2.167l.033 10.352h-2.477zm15.959-2.22h-5.298l-1.01 2.22h-2.708l5.086-10.353h2.609l5.1 10.352h-2.768l-1.011-2.22zm-.832-1.816l-1.81-3.966-1.81 3.966h3.62zm27.405-6.317v10.352h-2.642v-4.223h-5.171v4.223H138.9V84.917h2.642V89h5.171v-4.083h2.642zm5.246 5.176c0-3.078 2.642-5.354 6.242-5.354 3.601 0 6.243 2.262 6.243 5.354 0 3.093-2.656 5.355-6.243 5.355-3.586 0-6.242-2.267-6.242-5.355zm9.815 0c0-1.966-1.537-3.313-3.573-3.313-2.035 0-3.572 1.347-3.572 3.313 0 1.967 1.537 3.313 3.572 3.313 2.036 0 3.554-1.346 3.554-3.313h.019zm18.314 5.177v-6.214l-3.357 5.12h-1.189l-3.342-4.984v6.077h-2.477V84.917h2.181l4.273 6.434 4.23-6.434h2.167l.033 10.352h-2.519zm17.265-1.925v1.924h-8.832V84.917h8.621v1.924h-5.998v2.248h5.297v1.877h-5.297v2.393l6.209-.014zM40.971 109.841v-2.698l-1.41 2.168h-.968l-1.41-2.075v2.605H35.18v-5.918h1.805l2.125 3.154 2.068-3.154h1.805v5.918h-2.012zm6.435-.263a3.163 3.163 0 01-1.311-1.103 2.91 2.91 0 010-3.186 3.163 3.163 0 011.311-1.103 4.703 4.703 0 013.785 0 3.16 3.16 0 011.33 1.103 2.91 2.91 0 010 3.186 3.16 3.16 0 01-1.312 1.103 4.704 4.704 0 01-3.784 0h-.019zm2.633-1.408c.22-.12.402-.299.526-.516a1.645 1.645 0 000-1.563 1.41 1.41 0 00-.526-.516 1.592 1.592 0 00-1.48 0 1.41 1.41 0 00-.527.516 1.647 1.647 0 000 1.563c.124.217.306.396.526.516a1.59 1.59 0 001.48 0zm12.72.122v2.722h-2.012v-1.173h-3.709v1.173h-2.012v-2.722h.188a.831.831 0 00.8-.647 7.268 7.268 0 00.3-1.92l.07-1.802h5.538v4.369h.837zm-4.7-.938c-.054.332-.17.65-.344.938h2.012v-2.815h-1.5v.422c-.017.485-.069.968-.155 1.445l-.014.01zm13.819-3.431l-2.618 4.454a3.393 3.393 0 01-1.142 1.211 2.79 2.79 0 01-1.486.413 3.716 3.716 0 01-1.264-.235l.512-1.436c.218.058.442.091.668.098.143.005.285-.021.418-.075.125-.061.237-.148.329-.253l-2.496-4.177h2.317l1.298 2.492 1.34-2.492h2.124zm8.542 0v5.918h-2.163v-4.369h-1.49v.685a11.084 11.084 0 01-.221 2.079 2.507 2.507 0 01-.654 1.262 1.835 1.835 0 01-1.33.47 4.249 4.249 0 01-.94-.108l.113-1.596c.081.007.163.007.244 0a.605.605 0 00.527-.253c.132-.204.215-.435.244-.676.053-.367.085-.737.094-1.108l.085-2.309 5.49.005zm8.409 2.314a1.715 1.715 0 01.663 1.459 1.875 1.875 0 01-.757 1.591 3.41 3.41 0 01-2.069.554h-3.229v-5.918H85.6v1.816h1.35a3.103 3.103 0 011.88.498zm-1.758 2.018a.677.677 0 00.235-.526c0-.394-.254-.591-.762-.591h-.94v1.309h.94a.806.806 0 00.527-.192zm11.465-4.332v5.918h-2.2v-2.182h-2.031v2.182H92.11v-5.918h2.195v2.098h2.03v-2.098h2.2zm8.409 2.314c.222.171.398.393.514.647.115.255.166.534.149.812a1.878 1.878 0 01-.752 1.591 3.425 3.425 0 01-2.068.554h-3.234v-5.918h2.162v1.816h1.349a3.102 3.102 0 011.88.498zm-1.758 2.018a.664.664 0 00.212-.526c0-.394-.254-.591-.762-.591h-.94v1.309h.94a.798.798 0 00.531-.192h.019zm3.018-4.332h2.162v5.918h-2.162v-5.918zm10.595 4.412v1.506h-5.415v-5.918h5.298v1.507h-3.14v.69h2.759v1.44h-2.759v.775h3.257zm14.732-.043v2.722h-2.012v-1.173h-3.708v1.173H125.8v-2.722h.188a.829.829 0 00.799-.647 7.098 7.098 0 00.296-1.92l.075-1.802h5.514v4.369h.86zm-4.7-.938c-.053.332-.17.65-.344.938h2.012v-2.815h-1.499v.422a11.1 11.1 0 01-.155 1.445l-.014.01zm8.724 2.224a3.206 3.206 0 01-1.316-1.103 2.91 2.91 0 010-3.186c.33-.481.785-.862 1.316-1.103a4.665 4.665 0 013.761 0c.531.241.986.622 1.316 1.103a2.907 2.907 0 010 3.186c-.33.48-.785.862-1.316 1.103a4.683 4.683 0 01-3.761 0zm2.632-1.408c.219-.12.4-.299.522-.516a1.642 1.642 0 000-1.563 1.376 1.376 0 00-.522-.516 1.6 1.6 0 00-1.485 0 1.4 1.4 0 00-.526.516 1.675 1.675 0 000 1.563c.124.217.306.396.526.516a1.601 1.601 0 001.485 0zm11.414 1.671v-2.698l-1.41 2.168h-.969l-1.41-2.075v2.605h-2.002v-5.918h1.809l2.12 3.154 2.069-3.154h1.776v5.918h-1.983zm9.613-1.032h-2.459l-.437 1.032h-2.238l2.849-5.918h2.162l2.835 5.918h-2.271l-.441-1.032zm-.607-1.436l-.634-1.488-.635 1.488h1.269zM68.973 28.42c-.126.05-.254.095-.385.131-.061.038-.118.08-.184.113v22.962h2.111V31.705L82.657 38.5l1.034-1.835-14.718-8.245z" fill="#2D2D2D"/><path d="M99.354 68.778l-.23-40.616-14.827-7.978V60.42l-2.11-.755V16.617l19.038 10.263.239 41.86-2.11.038z" fill="#2D2D2D"/><path d="M112.172 0L82.187 16.617a1.189 1.189 0 00.212.657l.695 1.253 29.093-16.129 17.279 9.344 1.006-1.878L112.172 0zM82.365 21.061L68.423 28.66l.15.268.856 1.581 13.717-7.438c-.264-.671-.54-1.337-.78-2.009zm13.402 39.181l-9.12-5.43V27.445l9.12 4.838v27.96zm-6.995-6.626l4.884 2.914V33.535l-4.884-2.595v22.676zm-9.523-2.07l-5.726-3.392v-9.466l5.726 3.285v9.573zm-3.615-4.594l1.504.892v-4.642l-1.504-.863v4.613zm31.344-5.974v-2.412l17.571-9.855v2.417l-17.571 9.85zm0 12.286v-2.417l17.628-9.916v2.417l-17.628 9.916z" fill="#2D2D2D"/><path d="M101.234 71.125l-39.98-23.042v-2.44l40.201 23.182 37.173-20.503v2.403l-37.394 20.4zM85.58 69.848L61.256 55.901v-2.43l28.56 16.377h-4.234z" fill="#2D2D2D"/><path d="M101.262 71.106L60.07 47.572l1.048-1.83 40.168 22.947 42.409-23.126 1.011 1.849-43.444 23.694zm16.288-1.257h-4.264l25.342-14.403v2.427L117.55 69.849z" fill="#2D2D2D"/><path d="M129.889 9.648L99.391 26.895l-.277 41.846h2.11l.268-40.63 27.42-15.487-.062 41.766h2.111l.066-44.146a4.019 4.019 0 00-.47-.319 3.497 3.497 0 00-.668-.277z" fill="#2D2D2D"/></g><defs><clipPath id="clip0"><path fill="#fff" d="M0 0h200v111H0z"/></clipPath></defs></svg>